<svg width="25" height="25" viewBox="0 0 25 25" fill="none" xmlns="http://www.w3.org/2000/svg">

<!-- Home -->

<g id="home">
<path d="M22 22L2 22" stroke="#1C274C" stroke-width="1.5" stroke-linecap="round"/>
<path d="M2 11L6.06296 7.74968M22 11L13.8741 4.49931C12.7784 3.62279 11.2216 3.62279 10.1259 4.49931L9.34398 5.12486" stroke="#1C274C" stroke-width="1.5" stroke-linecap="round"/>
<path d="M15.5 5.5V3.5C15.5 3.22386 15.7239 3 16 3H18.5C18.7761 3 19 3.22386 19 3.5V8.5" stroke="#1C274C" stroke-width="1.5" stroke-linecap="round"/>
<path d="M4 22V9.5" stroke="#1C274C" stroke-width="1.5" stroke-linecap="round"/>
<path d="M20 9.5V13.5M20 22V17.5" stroke="#1C274C" stroke-width="1.5" stroke-linecap="round"/>
<path d="M15 22V17C15 15.5858 15 14.8787 14.5607 14.4393C14.1213 14 13.4142 14 12 14C10.5858 14 9.87868 14 9.43934 14.4393M9 22V17" stroke="#1C274C" stroke-width="1.5" stroke-linecap="round" stroke-linejoin="round"/>
<path d="M14 9.5C14 10.6046 13.1046 11.5 12 11.5C10.8954 11.5 10 10.6046 10 9.5C10 8.39543 10.8954 7.5 12 7.5C13.1046 7.5 14 8.39543 14 9.5Z" stroke="#1C274C" stroke-width="1.5"/>
</g>

<!-- social -->
<g id="mail">
<path d="M24.0404 1.49743V16.2383C24.0404 17.0748 23.4029 17.7123 22.5663 17.7123H21.0922V4.3343L12.2477 10.6876L3.40324 4.3343V17.7123H1.92916C1.09262 17.7123 0.455078 17.0748 0.455078 16.2383V1.49743C0.455078 1.07879 0.612805 0.710271 0.877403 0.449358C1.01521 0.311478 1.17933 0.202713 1.36001 0.129529C1.54069 0.0563445 1.73425 0.0202354 1.92916 0.0233483H2.42077L12.2477 7.14832L22.0747 0.0233483H22.5663C22.985 0.0233483 23.3535 0.181075 23.6181 0.449358C23.8827 0.710271 24.0404 1.07879 24.0404 1.49743Z" fill="#DBFFFF"/>
</g>

<g id="LKD">
<path d="M1.06326 21.7051H5.01128V7.09742H1.06326V21.7051ZM3.03727 0.648987C1.72126 0.648987 0.668457 1.70179 0.668457 3.0178C0.668457 4.33381 1.72126 5.38661 3.03727 5.38661C4.35328 5.38661 5.40608 4.33381 5.40608 3.0178C5.40608 1.70179 4.35328 0.648987 3.03727 0.648987ZM11.7229 9.33463V7.09742H7.7749V21.7051H11.7229V14.2039C11.7229 9.99264 17.1185 9.72944 17.1185 14.2039V21.7051H21.0666V12.7563C21.0666 5.64981 13.5653 5.91302 11.7229 9.33463Z" fill="#DBFFFF"/>
</g>

<g id="git">
<path fill-rule="evenodd" clip-rule="evenodd" d="M19.214 0C8.78925 0 0.345703 8.44354 0.345703 18.8682C0.345703 27.2175 5.74674 34.2695 13.2469 36.7695C14.1903 36.9346 14.5441 36.3686 14.5441 35.8733C14.5441 35.4251 14.5205 33.9393 14.5205 32.3591C9.77983 33.2317 8.55339 31.2034 8.17603 30.142C7.96376 29.5996 7.04393 27.925 6.24203 27.4769C5.58164 27.1231 4.63823 26.2505 6.21845 26.2269C7.70432 26.2033 8.76566 27.5948 9.11944 28.1609C10.8176 31.0147 13.5299 30.2128 14.6148 29.7175C14.7799 28.4911 15.2752 27.6656 15.8177 27.1939C11.6195 26.7222 7.23261 25.0948 7.23261 17.8777C7.23261 15.8257 7.96376 14.1276 9.16661 12.8068C8.97793 12.3351 8.31754 10.4011 9.35529 7.80674C9.35529 7.80674 10.9355 7.31145 14.5441 9.74073C16.0535 9.3162 17.6573 9.10393 19.2611 9.10393C20.8649 9.10393 22.4687 9.3162 23.9782 9.74073C27.5867 7.28786 29.167 7.80674 29.167 7.80674C30.2047 10.4011 29.5443 12.3351 29.3556 12.8068C30.5585 14.1276 31.2896 15.8022 31.2896 17.8777C31.2896 25.1184 26.8792 26.7222 22.681 27.1939C23.365 27.7835 23.9546 28.9156 23.9546 30.6845C23.9546 33.2081 23.931 35.2365 23.931 35.8733C23.931 36.3686 24.2848 36.9582 25.2282 36.7695C28.9738 35.5049 32.2286 33.0976 34.5344 29.8863C36.8403 26.6751 38.0811 22.8216 38.0822 18.8682C38.0822 8.44354 29.6387 0 19.214 0Z" fill="#5222D0"/>
</g>

<!-- code -->

<g id="code">
<path fill-rule="evenodd" clip-rule="evenodd" d="M18.3125 42.0645L27.2623 6.6875L31.4375 7.87241L22.4878 43.3125L18.3125 42.0645Z" fill="#7572D5"/>
<path fill-rule="evenodd" clip-rule="evenodd" d="M13.5025 12.6875L16.5625 15.9278L7.99501 25.0001L16.5625 34.0721L13.5025 37.3125L1.875 25.0001L13.5025 12.6875Z" fill="#7572D5"/>
<path fill-rule="evenodd" clip-rule="evenodd" d="M36.4976 12.6875L33.4375 15.9278L42.0051 25.0001L33.4375 34.0721L36.4976 37.3125L48.125 25.0001L36.4976 12.6875Z" fill="#7572D5"/>

</g>

</svg>
