<svg width="39" height="38" viewBox="0 0 39 38" fill="none" xmlns="http://www.w3.org/2000/svg">
<circle cx="19.2481" cy="18.8683" r="18.8683" fill="#5222D0"/>
<g clip-path="url(#clip0_1_2353)">
<path d="M31.0404 11.4974V26.2383C31.0404 27.0748 30.4029 27.7123 29.5663 27.7123H28.0922V14.3343L19.2477 20.6876L10.4032 14.3343V27.7123H8.92916C8.09262 27.7123 7.45508 27.0748 7.45508 26.2383V11.4974C7.45508 11.0788 7.6128 10.7103 7.8774 10.4494C8.01521 10.3115 8.17933 10.2027 8.36001 10.1295C8.54069 10.0563 8.73425 10.0202 8.92916 10.0233H9.42077L19.2477 17.1483L29.0747 10.0233H29.5663C29.985 10.0233 30.3535 10.1811 30.6181 10.4494C30.8827 10.7103 31.0404 11.0788 31.0404 11.4974Z" fill="#DBFFFF"/>
</g>
<defs>
<clipPath id="clip0_1_2353">
<rect width="23.5853" height="23.5853" fill="white" transform="translate(7.45508 7.07556)"/>
</clipPath>
</defs>
</svg>
