<svg width="39" height="38" viewBox="0 0 39 38" fill="none" xmlns="http://www.w3.org/2000/svg">
<ellipse cx="19.3521" cy="18.868" rx="18.8683" ry="18.8683" fill="#5222D0"/>
<path d="M10.0633 28.7051H14.0113V14.0974H10.0633V28.7051ZM12.0373 7.64899C10.7213 7.64899 9.66846 8.70179 9.66846 10.0178C9.66846 11.3338 10.7213 12.3866 12.0373 12.3866C13.3533 12.3866 14.4061 11.3338 14.4061 10.0178C14.4061 8.70179 13.3533 7.64899 12.0373 7.64899ZM20.7229 16.3346V14.0974H16.7749V28.7051H20.7229V21.2039C20.7229 16.9926 26.1185 16.7294 26.1185 21.2039V28.7051H30.0666V19.7563C30.0666 12.6498 22.5653 12.913 20.7229 16.3346Z" fill="#DBFFFF"/>
</svg>
